<svg width="375" height="110" viewBox="0 0 375 110" fill="none" xmlns="http://www.w3.org/2000/svg">
<g clip-path="url(#clip0_1_1844)">
<rect width="475.999" height="43" transform="matrix(0.990268 0.139173 -0.139155 0.990271 -45.0161 0.246338)" fill="#E9A923"/>
<path d="M-45.6996 27.4157L-46.8564 15.2967L-44.4322 15.6374L-43.709 24.1732L-40.3444 16.212L-38.1896 16.5148L-37.1653 25.0928L-34.1176 17.0871L-31.6934 17.4278L-36.1455 28.7584L-38.5379 28.4222L-39.7524 19.8174L-43.3071 27.7519L-45.6996 27.4157ZM-29.6157 29.7569C-29.8693 29.7213 -30.156 29.6541 -30.4761 29.5552C-30.7976 29.4669 -31.0996 29.3168 -31.3822 29.1047C-31.6542 28.8942 -31.8668 28.6058 -32.02 28.2395C-32.1611 27.8642 -32.1894 27.3756 -32.1048 26.7735L-31.1853 20.2298C-31.1125 19.7122 -30.9725 19.2902 -30.765 18.9639C-30.5576 18.6376 -30.3078 18.3927 -30.0155 18.2291C-29.7232 18.0655 -29.4127 17.9637 -29.0839 17.9238C-28.7552 17.8838 -28.4376 17.8853 -28.1313 17.9284C-27.3391 18.0397 -26.6434 18.1483 -26.0443 18.254C-25.4346 18.3612 -24.8891 18.4648 -24.4076 18.5648C-23.9247 18.6542 -23.4855 18.7483 -23.0901 18.8469L-23.3662 20.8116L-27.7392 20.197C-28.0666 20.151 -28.3313 20.1946 -28.5331 20.3278C-28.7349 20.461 -28.8589 20.6914 -28.9049 21.0188L-29.1431 22.7141L-24.5185 23.4933L-24.779 25.3471L-29.4392 24.8214L-29.6663 26.4376C-29.7049 26.7122 -29.6931 26.9347 -29.6309 27.105C-29.5566 27.2662 -29.45 27.3889 -29.311 27.4731C-29.16 27.5482 -28.9999 27.5976 -28.8309 27.6214L-24.4104 28.2426L-24.6865 30.2073C-25.1587 30.1948 -25.6822 30.1643 -26.257 30.1158C-26.8213 30.0689 -27.3954 30.0151 -27.9793 29.9546C-28.5527 29.8955 -29.0982 29.8297 -29.6157 29.7569ZM-18.9178 31.1796L-17.2702 19.4548L-12.6595 20.1028C-11.4976 20.2661 -10.6904 20.6542 -10.2379 21.2672C-9.77346 21.871 -9.61023 22.6641 -9.74828 23.6465C-9.81359 24.1112 -9.94013 24.5135 -10.1279 24.8534C-10.3037 25.1841 -10.5293 25.4486 -10.8049 25.6469C-11.079 25.8346 -11.391 25.9469 -11.7409 25.9839C-11.4963 26.0829 -11.2675 26.2174 -11.0544 26.3874C-10.8307 26.5588 -10.6402 26.7741 -10.4827 27.0332C-10.3147 27.2938 -10.2016 27.6005 -10.1434 27.9534C-10.0733 28.2972 -10.0686 28.6856 -10.1295 29.1187C-10.2408 29.9109 -10.4672 30.5254 -10.8086 30.9621C-11.1395 31.4003 -11.5838 31.6879 -12.1416 31.825C-12.6874 31.9529 -13.3406 31.9635 -14.1011 31.8566L-18.9178 31.1796ZM-16.2767 29.4019L-13.8684 29.7404C-13.5937 29.779 -13.3486 29.7595 -13.1331 29.6821C-12.9176 29.6047 -12.7414 29.4625 -12.6046 29.2555C-12.4572 29.05 -12.3576 28.7624 -12.3056 28.3927C-12.2626 28.0864 -12.2843 27.8195 -12.3708 27.5919C-12.4573 27.3643 -12.5928 27.1783 -12.7771 27.0339C-12.9615 26.8895 -13.1857 26.7987 -13.4498 26.7616L-15.8581 26.4232L-16.2767 29.4019ZM-15.6043 24.6169L-13.3227 24.9376C-12.9847 24.9851 -12.7036 24.9007 -12.4793 24.6845C-12.243 24.4592 -12.0966 24.1458 -12.0402 23.7444C-11.9569 23.2283 -12.0121 22.8544 -12.2057 22.6225C-12.3993 22.3906 -12.6546 22.2524 -12.9715 22.2079L-15.2213 21.8917L-15.6043 24.6169ZM-4.57471 33.2762C-5.21905 33.1856 -5.81371 33.0482 -6.3587 32.8639C-6.9022 32.669 -7.36592 32.4046 -7.74984 32.0706C-8.12171 31.7275 -8.38896 31.2914 -8.55158 30.7623C-8.70215 30.2241 -8.72252 29.5641 -8.61268 28.7825L-7.49499 20.8286L-5.15003 21.1582L-6.2655 29.0962C-6.32636 29.5293 -6.29009 29.8845 -6.15671 30.1617C-6.01277 30.4405 -5.78523 30.6609 -5.47411 30.8232C-5.15243 30.9869 -4.75392 31.1021 -4.27859 31.1689C-3.81383 31.2342 -3.40956 31.2318 -3.06578 31.1616C-2.71144 31.0929 -2.43196 30.9437 -2.22733 30.714C-2.01214 30.4857 -1.87411 30.155 -1.81325 29.7219L-0.697789 21.7839L1.66301 22.1157L0.545319 30.0696C0.435479 30.8512 0.228744 31.4792 -0.0748859 31.9536C-0.377032 32.4174 -0.754119 32.7629 -1.20615 32.9902C-1.65669 33.207 -2.17004 33.3341 -2.7462 33.3716C-3.31031 33.4 -3.91982 33.3682 -4.57471 33.2762ZM4.66646 34.4942L5.16519 30.945L2.78077 22.2728L5.2208 22.6157L6.7214 28.724L9.83148 23.2637L12.1764 23.5933L7.51014 31.2746L7.01141 34.8237L4.66646 34.4942ZM18.3677 36.4198L19.7192 26.8022L16.5028 26.3502L16.7989 24.2429L25.5925 25.4788L25.2963 27.5861L22.0641 27.1318L20.7126 36.7493L18.3677 36.4198ZM25.2111 37.3815L26.8586 25.6567L31.707 26.3381C32.1718 26.4034 32.5967 26.5224 32.9817 26.695C33.3683 26.857 33.6954 27.0969 33.9632 27.4146C34.2309 27.7323 34.4151 28.1459 34.5158 28.6556C34.6271 29.1667 34.6293 29.8025 34.5225 30.5631C34.4468 31.1018 34.3294 31.5538 34.1703 31.9193C34.0113 32.2847 33.8249 32.5762 33.6112 32.794C33.408 33.0131 33.1851 33.1811 32.9425 33.2978C32.6999 33.4145 32.4558 33.5041 32.21 33.5665L33.7353 38.5795L31.3428 38.2433L30.0674 33.637C29.9406 33.6191 29.7927 33.5984 29.6237 33.5746C29.4668 33.5418 29.3038 33.5135 29.1348 33.4897C28.9658 33.466 28.7968 33.4422 28.6278 33.4185C28.4588 33.3947 28.3063 33.3679 28.1705 33.3381L27.556 37.7111L25.2111 37.3815ZM28.431 31.4843L30.5225 31.7782C30.7337 31.8079 30.9276 31.8082 31.104 31.7791C31.2804 31.7501 31.4409 31.6811 31.5855 31.5721C31.7315 31.4526 31.8518 31.2864 31.9464 31.0735C32.0515 30.8621 32.1285 30.5821 32.1775 30.2335C32.2235 29.9061 32.2244 29.6315 32.1802 29.4099C32.1479 29.1791 32.0766 28.9968 31.9662 28.8628C31.8573 28.7182 31.7213 28.6129 31.5582 28.5469C31.3966 28.4703 31.2102 28.4172 30.9989 28.3875L28.9075 28.0936L28.431 31.4843ZM34.4 38.673L39.7235 27.4648L42.6863 27.8812L44.7146 40.1226L42.2746 39.7797L41.875 37.2191L37.8823 36.658L36.8083 39.0114L34.4 38.673ZM38.7329 34.6286L41.6166 35.0339L40.8984 29.6819L38.7329 34.6286ZM45.6818 40.2585L46.9531 31.2114C47.0258 30.6938 47.1659 30.2719 47.3733 29.9456C47.5807 29.6192 47.8306 29.3743 48.1229 29.2107C48.4151 29.0471 48.7256 28.9454 49.0544 28.9054C49.3832 28.8654 49.7007 28.867 50.007 28.91C50.3873 28.9635 50.8566 29.0348 51.4149 29.124C51.9853 29.2042 52.5852 29.3047 53.2145 29.4254C53.8544 29.5477 54.4656 29.6821 55.0483 29.8286L54.7722 31.7933L50.3516 31.172C50.0242 31.126 49.7633 31.1809 49.5691 31.3367C49.3869 31.4834 49.2758 31.6994 49.2357 31.9846L48.9551 33.981L53.5797 34.7602L53.3192 36.614L48.659 36.0883L48.0267 40.5881L45.6818 40.2585ZM54.7644 41.535L56.0357 32.4879C56.1084 31.9703 56.2485 31.5483 56.4559 31.222C56.6633 30.8957 56.9132 30.6508 57.2055 30.4872C57.4977 30.3236 57.8083 30.2218 58.137 30.1819C58.4658 30.1419 58.7833 30.1434 59.0896 30.1865C59.4699 30.2399 59.9392 30.3113 60.4976 30.4005C61.068 30.4807 61.6678 30.5811 62.2971 30.7019C62.937 30.8242 63.5483 30.9585 64.1309 31.105L63.8548 33.0697L59.4342 32.4485C59.1068 32.4024 58.8459 32.4573 58.6517 32.6132C58.4695 32.7599 58.3584 32.9759 58.3183 33.2611L58.0378 35.2575L62.6623 36.0367L62.4018 37.8904L57.7416 37.3647L57.1093 41.8645L54.7644 41.535ZM64.0017 42.8332L65.6493 31.1084L67.9943 31.438L66.3467 43.1628L64.0017 42.8332ZM72.3124 44.0981C71.6258 44.0016 71.0296 43.8371 70.5237 43.6044C70.0284 43.3732 69.6256 43.0204 69.3153 42.5459C69.0155 42.0729 68.8255 41.4322 68.7452 40.6239C68.6769 39.8064 68.7311 38.7692 68.9078 37.5122C69.0785 36.2975 69.313 35.3179 69.6115 34.5736C69.9221 33.8201 70.2919 33.2581 70.7209 32.8875C71.1515 32.5064 71.6427 32.2685 72.1946 32.1737C72.7465 32.0789 73.3552 32.0783 74.0206 32.1718C74.5488 32.246 75.0355 32.3468 75.4808 32.474C75.9382 32.5921 76.3457 32.7194 76.7036 32.8559C77.0629 32.9818 77.3626 33.1101 77.6028 33.2407L77.3467 35.0628C77.1625 34.9939 76.9097 34.9153 76.5881 34.827C76.2772 34.7402 75.9172 34.6573 75.5083 34.5783C75.1008 34.4887 74.6699 34.412 74.2157 34.3481C73.7721 34.2858 73.3844 34.2852 73.0526 34.3463C72.733 34.3983 72.4588 34.5482 72.23 34.7961C72.0134 35.035 71.8219 35.4012 71.6556 35.8949C71.4998 36.39 71.3648 37.0443 71.2505 37.8576C71.1406 38.6393 71.0871 39.2888 71.0898 39.8062C71.103 40.3251 71.1794 40.7398 71.3189 41.0502C71.4599 41.3501 71.6754 41.5796 71.9653 41.7389C72.2674 41.889 72.6561 41.9975 73.1314 42.0643C73.9342 42.1771 74.586 42.2526 75.0869 42.2907C75.5984 42.3303 76.0103 42.3504 76.3225 42.3512L76.0687 44.1575C75.7702 44.2125 75.4308 44.251 75.0507 44.2729C74.6721 44.2844 74.2588 44.2747 73.8107 44.2441C73.3611 44.224 72.8617 44.1753 72.3124 44.0981Z" fill="white"/>
<mask id="path-2-outside-1_1_1844" maskUnits="userSpaceOnUse" x="107.483" y="36.5709" width="128.702" height="31.6779" fill="black">
<rect fill="white" x="107.483" y="36.5709" width="128.702" height="31.6779"/>
<path d="M111.424 49.9302L110.267 37.8112L112.691 38.1519L113.415 46.6877L116.779 38.7264L118.934 39.0293L119.958 47.6073L123.006 39.6016L125.43 39.9422L120.978 51.2729L118.586 50.9367L117.371 42.3319L113.816 50.2664L111.424 49.9302Z"/>
<path d="M127.508 52.2714C127.254 52.2358 126.968 52.1685 126.647 52.0697C126.326 51.9814 126.024 51.8313 125.741 51.6192C125.469 51.4086 125.257 51.1202 125.104 50.754C124.962 50.3787 124.934 49.89 125.019 49.2879L125.938 42.7442C126.011 42.2267 126.151 41.8047 126.359 41.4784C126.566 41.1521 126.816 40.9072 127.108 40.7436C127.4 40.58 127.711 40.4782 128.04 40.4382C128.368 40.3983 128.686 40.3998 128.992 40.4429C129.784 40.5542 130.48 40.6627 131.079 40.7685C131.689 40.8757 132.234 40.9793 132.716 41.0793C133.199 41.1687 133.638 41.2627 134.033 41.3614L133.757 43.3261L129.384 42.7115C129.057 42.6655 128.792 42.7091 128.59 42.8423C128.389 42.9755 128.265 43.2058 128.219 43.5333L127.98 45.2286L132.605 46.0078L132.344 47.8616L127.684 47.3359L127.457 48.952C127.419 49.2267 127.43 49.4492 127.493 49.6195C127.567 49.7807 127.674 49.9034 127.813 49.9876C127.964 50.0627 128.124 50.1121 128.293 50.1358L132.713 50.7571L132.437 52.7218C131.965 52.7093 131.441 52.6788 130.867 52.6303C130.302 52.5833 129.728 52.5296 129.144 52.4691C128.571 52.41 128.025 52.3441 127.508 52.2714Z"/>
<path d="M138.206 53.6941L139.853 41.9693L144.464 42.6173C145.626 42.7806 146.433 43.1687 146.886 43.7816C147.35 44.3855 147.513 45.1786 147.375 46.1609C147.31 46.6257 147.183 47.028 146.996 47.3679C146.82 47.6986 146.594 47.9631 146.319 48.1614C146.045 48.349 145.732 48.4614 145.383 48.4984C145.627 48.5974 145.856 48.7319 146.069 48.9018C146.293 49.0733 146.483 49.2886 146.641 49.5477C146.809 49.8083 146.922 50.115 146.98 50.4679C147.05 50.8116 147.055 51.2001 146.994 51.6331C146.883 52.4254 146.656 53.0398 146.315 53.4766C145.984 53.9148 145.54 54.2024 144.982 54.3394C144.436 54.4674 143.783 54.4779 143.022 54.371L138.206 53.6941ZM140.847 51.9164L143.255 52.2548C143.53 52.2934 143.775 52.274 143.99 52.1966C144.206 52.1192 144.382 51.977 144.519 51.77C144.666 51.5645 144.766 51.2769 144.818 50.9072C144.861 50.6009 144.839 50.3339 144.753 50.1064C144.666 49.8788 144.531 49.6928 144.346 49.5484C144.162 49.404 143.938 49.3132 143.674 49.2761L141.265 48.9376L140.847 51.9164ZM141.519 47.1314L143.801 47.452C144.139 47.4995 144.42 47.4152 144.644 47.199C144.881 46.9737 145.027 46.6603 145.083 46.2589C145.167 45.7428 145.111 45.3688 144.918 45.137C144.724 44.9051 144.469 44.7669 144.152 44.7224L141.902 44.4062L141.519 47.1314Z"/>
<path d="M152.549 55.7907C151.904 55.7001 151.31 55.5627 150.765 55.3784C150.221 55.1835 149.758 54.9191 149.374 54.5851C149.002 54.242 148.735 53.8059 148.572 53.2767C148.421 52.7385 148.401 52.0786 148.511 51.297L149.629 43.3431L151.974 43.6727L150.858 51.6107C150.797 52.0438 150.833 52.3989 150.967 52.6762C151.111 52.9549 151.338 53.1754 151.649 53.3376C151.971 53.5013 152.37 53.6166 152.845 53.6834C153.31 53.7487 153.714 53.7463 154.058 53.6761C154.412 53.6074 154.692 53.4582 154.896 53.2284C155.111 53.0002 155.249 52.6695 155.31 52.2364L156.426 44.2984L158.787 44.6302L157.669 52.584C157.559 53.3657 157.352 53.9937 157.049 54.4681C156.747 54.9319 156.369 55.2774 155.917 55.5047C155.467 55.7214 154.954 55.8486 154.377 55.8861C153.813 55.9145 153.204 55.8827 152.549 55.7907Z"/>
<path d="M161.79 57.0087L162.289 53.4595L159.904 44.7873L162.344 45.1302L163.845 51.2385L166.955 45.7782L169.3 46.1078L164.634 53.7891L164.135 57.3382L161.79 57.0087Z"/>
<path d="M175.491 58.9342L176.843 49.3167L173.626 48.8647L173.922 46.7574L182.716 47.9933L182.42 50.1005L179.188 49.6463L177.836 59.2638L175.491 58.9342Z"/>
<path d="M182.335 59.896L183.982 48.1712L188.831 48.8526C189.295 48.9179 189.72 49.0369 190.105 49.2095C190.492 49.3715 190.819 49.6114 191.087 49.9291C191.354 50.2468 191.539 50.6604 191.639 51.1701C191.751 51.6812 191.753 52.317 191.646 53.0775C191.57 53.6163 191.453 54.0683 191.294 54.4337C191.135 54.7992 190.948 55.0907 190.735 55.3084C190.532 55.5276 190.309 55.6956 190.066 55.8123C189.823 55.929 189.579 56.0185 189.334 56.081L190.859 61.094L188.466 60.7578L187.191 56.1514C187.064 56.1336 186.916 56.1128 186.747 56.0891C186.59 56.0563 186.427 56.028 186.258 56.0042C186.089 55.9805 185.92 55.9567 185.751 55.933C185.582 55.9092 185.43 55.8824 185.294 55.8525L184.68 60.2256L182.335 59.896ZM185.555 53.9987L187.646 54.2927C187.857 54.3224 188.051 54.3227 188.228 54.2936C188.404 54.2646 188.564 54.1956 188.709 54.0866C188.855 53.9671 188.975 53.8009 189.07 53.588C189.175 53.3766 189.252 53.0966 189.301 52.748C189.347 52.4205 189.348 52.146 189.304 51.9243C189.271 51.6936 189.2 51.5112 189.09 51.3772C188.981 51.2327 188.845 51.1274 188.682 51.0614C188.52 50.9848 188.334 50.9317 188.122 50.902L186.031 50.6081L185.555 53.9987Z"/>
<path d="M191.524 61.1874L196.847 49.9792L199.81 50.3956L201.838 62.6371L199.398 62.2941L198.999 59.7336L195.006 59.1725L193.932 61.5259L191.524 61.1874ZM195.856 57.1431L198.74 57.5484L198.022 52.1963L195.856 57.1431Z"/>
<path d="M202.805 62.773L204.077 53.7259C204.149 53.2083 204.289 52.7863 204.497 52.46C204.704 52.1337 204.954 51.8888 205.246 51.7252C205.539 51.5616 205.849 51.4598 206.178 51.4199C206.507 51.3799 206.824 51.3814 207.131 51.4245C207.511 51.4779 207.98 51.5493 208.538 51.6385C209.109 51.7187 209.709 51.8191 210.338 51.9399C210.978 52.0622 211.589 52.1965 212.172 52.343L211.896 54.3077L207.475 53.6865C207.148 53.6404 206.887 53.6953 206.693 53.8512C206.51 53.9979 206.399 54.2139 206.359 54.4991L206.079 56.4955L210.703 57.2747L210.443 59.1284L205.783 58.6027L205.15 63.1025L202.805 62.773Z"/>
<path d="M211.888 64.0495L213.159 55.0023C213.232 54.4848 213.372 54.0628 213.579 53.7365C213.787 53.4102 214.037 53.1653 214.329 53.0017C214.621 52.8381 214.932 52.7363 215.261 52.6963C215.589 52.6564 215.907 52.6579 216.213 52.701C216.593 52.7544 217.063 52.8258 217.621 52.915C218.191 52.9952 218.791 53.0956 219.421 53.2164C220.061 53.3386 220.672 53.473 221.254 53.6195L220.978 55.5842L216.558 54.9629C216.23 54.9169 215.969 54.9718 215.775 55.1276C215.593 55.2744 215.482 55.4903 215.442 55.7755L215.161 57.7719L219.786 58.5511L219.525 60.4049L214.865 59.8792L214.233 64.379L211.888 64.0495Z"/>
<path d="M221.125 65.3477L222.773 53.6229L225.118 53.9524L223.47 65.6772L221.125 65.3477Z"/>
<path d="M229.436 66.6126C228.749 66.5161 228.153 66.3515 227.647 66.1189C227.152 65.8877 226.749 65.5349 226.439 65.0604C226.139 64.5874 225.949 63.9467 225.869 63.1383C225.8 62.3209 225.855 61.2837 226.031 60.0267C226.202 58.812 226.437 57.8324 226.735 57.088C227.046 56.3346 227.415 55.7726 227.844 55.402C228.275 55.0209 228.766 54.783 229.318 54.6882C229.87 54.5934 230.479 54.5928 231.144 54.6863C231.672 54.7605 232.159 54.8612 232.604 54.9884C233.062 55.1066 233.469 55.2339 233.827 55.3703C234.186 55.4962 234.486 55.6245 234.726 55.7552L234.47 57.5773C234.286 57.5084 234.033 57.4297 233.712 57.3415C233.401 57.2547 233.041 57.1718 232.632 57.0927C232.224 57.0032 231.793 56.9265 231.339 56.8626C230.896 56.8003 230.508 56.7996 230.176 56.8607C229.857 56.9127 229.582 57.0627 229.354 57.3106C229.137 57.5495 228.945 57.9157 228.779 58.4094C228.623 58.9045 228.488 59.5587 228.374 60.3721C228.264 61.1537 228.211 61.8033 228.213 62.3207C228.227 62.8396 228.303 63.2542 228.442 63.5647C228.583 63.8646 228.799 64.0941 229.089 64.2534C229.391 64.4035 229.78 64.512 230.255 64.5788C231.058 64.6916 231.71 64.7671 232.21 64.8052C232.722 64.8447 233.134 64.8649 233.446 64.8657L233.192 66.672C232.894 66.727 232.554 66.7654 232.174 66.7874C231.796 66.7988 231.382 66.7892 230.934 66.7586C230.485 66.7385 229.985 66.6898 229.436 66.6126Z"/>
</mask>
<path d="M111.424 49.9302L110.267 37.8112L112.691 38.1519L113.415 46.6877L116.779 38.7264L118.934 39.0293L119.958 47.6073L123.006 39.6016L125.43 39.9422L120.978 51.2729L118.586 50.9367L117.371 42.3319L113.816 50.2664L111.424 49.9302Z" stroke="white" stroke-width="1.5" mask="url(#path-2-outside-1_1_1844)"/>
<path d="M127.508 52.2714C127.254 52.2358 126.968 52.1685 126.647 52.0697C126.326 51.9814 126.024 51.8313 125.741 51.6192C125.469 51.4086 125.257 51.1202 125.104 50.754C124.962 50.3787 124.934 49.89 125.019 49.2879L125.938 42.7442C126.011 42.2267 126.151 41.8047 126.359 41.4784C126.566 41.1521 126.816 40.9072 127.108 40.7436C127.4 40.58 127.711 40.4782 128.04 40.4382C128.368 40.3983 128.686 40.3998 128.992 40.4429C129.784 40.5542 130.48 40.6627 131.079 40.7685C131.689 40.8757 132.234 40.9793 132.716 41.0793C133.199 41.1687 133.638 41.2627 134.033 41.3614L133.757 43.3261L129.384 42.7115C129.057 42.6655 128.792 42.7091 128.59 42.8423C128.389 42.9755 128.265 43.2058 128.219 43.5333L127.98 45.2286L132.605 46.0078L132.344 47.8616L127.684 47.3359L127.457 48.952C127.419 49.2267 127.43 49.4492 127.493 49.6195C127.567 49.7807 127.674 49.9034 127.813 49.9876C127.964 50.0627 128.124 50.1121 128.293 50.1358L132.713 50.7571L132.437 52.7218C131.965 52.7093 131.441 52.6788 130.867 52.6303C130.302 52.5833 129.728 52.5296 129.144 52.4691C128.571 52.41 128.025 52.3441 127.508 52.2714Z" stroke="white" stroke-width="1.5" mask="url(#path-2-outside-1_1_1844)"/>
<path d="M138.206 53.6941L139.853 41.9693L144.464 42.6173C145.626 42.7806 146.433 43.1687 146.886 43.7816C147.35 44.3855 147.513 45.1786 147.375 46.1609C147.31 46.6257 147.183 47.028 146.996 47.3679C146.82 47.6986 146.594 47.9631 146.319 48.1614C146.045 48.349 145.732 48.4614 145.383 48.4984C145.627 48.5974 145.856 48.7319 146.069 48.9018C146.293 49.0733 146.483 49.2886 146.641 49.5477C146.809 49.8083 146.922 50.115 146.98 50.4679C147.05 50.8116 147.055 51.2001 146.994 51.6331C146.883 52.4254 146.656 53.0398 146.315 53.4766C145.984 53.9148 145.54 54.2024 144.982 54.3394C144.436 54.4674 143.783 54.4779 143.022 54.371L138.206 53.6941ZM140.847 51.9164L143.255 52.2548C143.53 52.2934 143.775 52.274 143.99 52.1966C144.206 52.1192 144.382 51.977 144.519 51.77C144.666 51.5645 144.766 51.2769 144.818 50.9072C144.861 50.6009 144.839 50.3339 144.753 50.1064C144.666 49.8788 144.531 49.6928 144.346 49.5484C144.162 49.404 143.938 49.3132 143.674 49.2761L141.265 48.9376L140.847 51.9164ZM141.519 47.1314L143.801 47.452C144.139 47.4995 144.42 47.4152 144.644 47.199C144.881 46.9737 145.027 46.6603 145.083 46.2589C145.167 45.7428 145.111 45.3688 144.918 45.137C144.724 44.9051 144.469 44.7669 144.152 44.7224L141.902 44.4062L141.519 47.1314Z" stroke="white" stroke-width="1.5" mask="url(#path-2-outside-1_1_1844)"/>
<path d="M152.549 55.7907C151.904 55.7001 151.31 55.5627 150.765 55.3784C150.221 55.1835 149.758 54.9191 149.374 54.5851C149.002 54.242 148.735 53.8059 148.572 53.2767C148.421 52.7385 148.401 52.0786 148.511 51.297L149.629 43.3431L151.974 43.6727L150.858 51.6107C150.797 52.0438 150.833 52.3989 150.967 52.6762C151.111 52.9549 151.338 53.1754 151.649 53.3376C151.971 53.5013 152.37 53.6166 152.845 53.6834C153.31 53.7487 153.714 53.7463 154.058 53.6761C154.412 53.6074 154.692 53.4582 154.896 53.2284C155.111 53.0002 155.249 52.6695 155.31 52.2364L156.426 44.2984L158.787 44.6302L157.669 52.584C157.559 53.3657 157.352 53.9937 157.049 54.4681C156.747 54.9319 156.369 55.2774 155.917 55.5047C155.467 55.7214 154.954 55.8486 154.377 55.8861C153.813 55.9145 153.204 55.8827 152.549 55.7907Z" stroke="white" stroke-width="1.5" mask="url(#path-2-outside-1_1_1844)"/>
<path d="M161.79 57.0087L162.289 53.4595L159.904 44.7873L162.344 45.1302L163.845 51.2385L166.955 45.7782L169.3 46.1078L164.634 53.7891L164.135 57.3382L161.79 57.0087Z" stroke="white" stroke-width="1.5" mask="url(#path-2-outside-1_1_1844)"/>
<path d="M175.491 58.9342L176.843 49.3167L173.626 48.8647L173.922 46.7574L182.716 47.9933L182.42 50.1005L179.188 49.6463L177.836 59.2638L175.491 58.9342Z" stroke="white" stroke-width="1.5" mask="url(#path-2-outside-1_1_1844)"/>
<path d="M182.335 59.896L183.982 48.1712L188.831 48.8526C189.295 48.9179 189.72 49.0369 190.105 49.2095C190.492 49.3715 190.819 49.6114 191.087 49.9291C191.354 50.2468 191.539 50.6604 191.639 51.1701C191.751 51.6812 191.753 52.317 191.646 53.0775C191.57 53.6163 191.453 54.0683 191.294 54.4337C191.135 54.7992 190.948 55.0907 190.735 55.3084C190.532 55.5276 190.309 55.6956 190.066 55.8123C189.823 55.929 189.579 56.0185 189.334 56.081L190.859 61.094L188.466 60.7578L187.191 56.1514C187.064 56.1336 186.916 56.1128 186.747 56.0891C186.59 56.0563 186.427 56.028 186.258 56.0042C186.089 55.9805 185.92 55.9567 185.751 55.933C185.582 55.9092 185.43 55.8824 185.294 55.8525L184.68 60.2256L182.335 59.896ZM185.555 53.9987L187.646 54.2927C187.857 54.3224 188.051 54.3227 188.228 54.2936C188.404 54.2646 188.564 54.1956 188.709 54.0866C188.855 53.9671 188.975 53.8009 189.07 53.588C189.175 53.3766 189.252 53.0966 189.301 52.748C189.347 52.4205 189.348 52.146 189.304 51.9243C189.271 51.6936 189.2 51.5112 189.09 51.3772C188.981 51.2327 188.845 51.1274 188.682 51.0614C188.52 50.9848 188.334 50.9317 188.122 50.902L186.031 50.6081L185.555 53.9987Z" stroke="white" stroke-width="1.5" mask="url(#path-2-outside-1_1_1844)"/>
<path d="M191.524 61.1874L196.847 49.9792L199.81 50.3956L201.838 62.6371L199.398 62.2941L198.999 59.7336L195.006 59.1725L193.932 61.5259L191.524 61.1874ZM195.856 57.1431L198.74 57.5484L198.022 52.1963L195.856 57.1431Z" stroke="white" stroke-width="1.5" mask="url(#path-2-outside-1_1_1844)"/>
<path d="M202.805 62.773L204.077 53.7259C204.149 53.2083 204.289 52.7863 204.497 52.46C204.704 52.1337 204.954 51.8888 205.246 51.7252C205.539 51.5616 205.849 51.4598 206.178 51.4199C206.507 51.3799 206.824 51.3814 207.131 51.4245C207.511 51.4779 207.98 51.5493 208.538 51.6385C209.109 51.7187 209.709 51.8191 210.338 51.9399C210.978 52.0622 211.589 52.1965 212.172 52.343L211.896 54.3077L207.475 53.6865C207.148 53.6404 206.887 53.6953 206.693 53.8512C206.51 53.9979 206.399 54.2139 206.359 54.4991L206.079 56.4955L210.703 57.2747L210.443 59.1284L205.783 58.6027L205.15 63.1025L202.805 62.773Z" stroke="white" stroke-width="1.5" mask="url(#path-2-outside-1_1_1844)"/>
<path d="M211.888 64.0495L213.159 55.0023C213.232 54.4848 213.372 54.0628 213.579 53.7365C213.787 53.4102 214.037 53.1653 214.329 53.0017C214.621 52.8381 214.932 52.7363 215.261 52.6963C215.589 52.6564 215.907 52.6579 216.213 52.701C216.593 52.7544 217.063 52.8258 217.621 52.915C218.191 52.9952 218.791 53.0956 219.421 53.2164C220.061 53.3386 220.672 53.473 221.254 53.6195L220.978 55.5842L216.558 54.9629C216.23 54.9169 215.969 54.9718 215.775 55.1276C215.593 55.2744 215.482 55.4903 215.442 55.7755L215.161 57.7719L219.786 58.5511L219.525 60.4049L214.865 59.8792L214.233 64.379L211.888 64.0495Z" stroke="white" stroke-width="1.5" mask="url(#path-2-outside-1_1_1844)"/>
<path d="M221.125 65.3477L222.773 53.6229L225.118 53.9524L223.47 65.6772L221.125 65.3477Z" stroke="white" stroke-width="1.5" mask="url(#path-2-outside-1_1_1844)"/>
<path d="M229.436 66.6126C228.749 66.5161 228.153 66.3515 227.647 66.1189C227.152 65.8877 226.749 65.5349 226.439 65.0604C226.139 64.5874 225.949 63.9467 225.869 63.1383C225.8 62.3209 225.855 61.2837 226.031 60.0267C226.202 58.812 226.437 57.8324 226.735 57.088C227.046 56.3346 227.415 55.7726 227.844 55.402C228.275 55.0209 228.766 54.783 229.318 54.6882C229.87 54.5934 230.479 54.5928 231.144 54.6863C231.672 54.7605 232.159 54.8612 232.604 54.9884C233.062 55.1066 233.469 55.2339 233.827 55.3703C234.186 55.4962 234.486 55.6245 234.726 55.7552L234.47 57.5773C234.286 57.5084 234.033 57.4297 233.712 57.3415C233.401 57.2547 233.041 57.1718 232.632 57.0927C232.224 57.0032 231.793 56.9265 231.339 56.8626C230.896 56.8003 230.508 56.7996 230.176 56.8607C229.857 56.9127 229.582 57.0627 229.354 57.3106C229.137 57.5495 228.945 57.9157 228.779 58.4094C228.623 58.9045 228.488 59.5587 228.374 60.3721C228.264 61.1537 228.211 61.8033 228.213 62.3207C228.227 62.8396 228.303 63.2542 228.442 63.5647C228.583 63.8646 228.799 64.0941 229.089 64.2534C229.391 64.4035 229.78 64.512 230.255 64.5788C231.058 64.6916 231.71 64.7671 232.21 64.8052C232.722 64.8447 233.134 64.8649 233.446 64.8657L233.192 66.672C232.894 66.727 232.554 66.7654 232.174 66.7874C231.796 66.7988 231.382 66.7892 230.934 66.7586C230.485 66.7385 229.985 66.6898 229.436 66.6126Z" stroke="white" stroke-width="1.5" mask="url(#path-2-outside-1_1_1844)"/>
<path d="M267.963 71.4981L266.806 59.3791L269.23 59.7198L269.954 68.2556L273.318 60.2943L275.473 60.5972L276.497 69.1752L279.545 61.1695L281.969 61.5102L277.517 72.8408L275.125 72.5046L273.91 63.8998L270.356 71.8343L267.963 71.4981ZM284.047 73.8393C283.793 73.8037 283.507 73.7364 283.187 73.6376C282.865 73.5493 282.563 73.3992 282.28 73.1871C282.008 72.9765 281.796 72.6882 281.643 72.3219C281.501 71.9466 281.473 71.4579 281.558 70.8559L282.477 64.3122C282.55 63.7946 282.69 63.3726 282.898 63.0463C283.105 62.72 283.355 62.4751 283.647 62.3115C283.939 62.1479 284.25 62.0461 284.579 62.0062C284.907 61.9662 285.225 61.9677 285.531 62.0108C286.324 62.1221 287.019 62.2307 287.618 62.3364C288.228 62.4436 288.774 62.5472 289.255 62.6472C289.738 62.7366 290.177 62.8307 290.573 62.9293L290.296 64.894L285.923 64.2794C285.596 64.2334 285.331 64.277 285.129 64.4102C284.928 64.5434 284.804 64.7738 284.758 65.1012L284.519 66.7965L289.144 67.5757L288.884 69.4295L284.223 68.9038L283.996 70.52C283.958 70.7946 283.969 71.0171 284.032 71.1874C284.106 71.3486 284.213 71.4713 284.352 71.5555C284.503 71.6306 284.663 71.68 284.832 71.7038L289.252 72.325L288.976 74.2897C288.504 74.2772 287.98 74.2467 287.406 74.1982C286.841 74.1513 286.267 74.0975 285.683 74.037C285.11 73.9779 284.564 73.9121 284.047 73.8393ZM294.745 75.262L296.392 63.5372L301.003 64.1852C302.165 64.3485 302.972 64.7366 303.425 65.3496C303.889 65.9534 304.052 66.7465 303.914 67.7289C303.849 68.1936 303.722 68.5959 303.535 68.9358C303.359 69.2665 303.133 69.531 302.858 69.7293C302.584 69.9169 302.272 70.0293 301.922 70.0663C302.166 70.1653 302.395 70.2998 302.608 70.4698C302.832 70.6412 303.022 70.8565 303.18 71.1156C303.348 71.3762 303.461 71.6829 303.519 72.0358C303.589 72.3796 303.594 72.768 303.533 73.2011C303.422 73.9933 303.195 74.6078 302.854 75.0445C302.523 75.4827 302.079 75.7703 301.521 75.9074C300.975 76.0353 300.322 76.0458 299.561 75.939L294.745 75.262ZM297.386 73.4843L299.794 73.8228C300.069 73.8614 300.314 73.8419 300.529 73.7645C300.745 73.6871 300.921 73.5449 301.058 73.3379C301.205 73.1324 301.305 72.8448 301.357 72.4751C301.4 72.1688 301.378 71.9019 301.292 71.6743C301.205 71.4467 301.07 71.2607 300.885 71.1163C300.701 70.9719 300.477 70.8811 300.213 70.844L297.804 70.5056L297.386 73.4843ZM298.058 68.6993L300.34 69.02C300.678 69.0675 300.959 68.9831 301.183 68.7669C301.42 68.5416 301.566 68.2282 301.622 67.8268C301.706 67.3107 301.651 66.9368 301.457 66.7049C301.263 66.473 301.008 66.3348 300.691 66.2903L298.441 65.9741L298.058 68.6993ZM309.088 77.3586C308.444 77.268 307.849 77.1306 307.304 76.9463C306.76 76.7514 306.297 76.487 305.913 76.153C305.541 75.8099 305.274 75.3738 305.111 74.8447C304.96 74.3065 304.94 73.6465 305.05 72.8649L306.168 64.911L308.513 65.2406L307.397 73.1786C307.336 73.6117 307.373 73.9669 307.506 74.2441C307.65 74.5229 307.877 74.7433 308.188 74.9056C308.51 75.0692 308.909 75.1845 309.384 75.2513C309.849 75.3166 310.253 75.3142 310.597 75.244C310.951 75.1753 311.231 75.0261 311.435 74.7964C311.65 74.5681 311.788 74.2374 311.849 73.8043L312.965 65.8663L315.326 66.1981L314.208 74.152C314.098 74.9336 313.891 75.5616 313.588 76.036C313.286 76.4998 312.908 76.8453 312.456 77.0726C312.006 77.2894 311.493 77.4165 310.916 77.454C310.352 77.4824 309.743 77.4506 309.088 77.3586ZM318.329 78.5766L318.828 75.0274L316.443 66.3552L318.883 66.6981L320.384 72.8064L323.494 67.3461L325.839 67.6757L321.173 75.357L320.674 78.9061L318.329 78.5766ZM332.03 80.5022L333.382 70.8846L330.165 70.4326L330.461 68.3253L339.255 69.5612L338.959 71.6685L335.727 71.2142L334.375 80.8317L332.03 80.5022ZM338.874 81.4639L340.521 69.7391L345.37 70.4205C345.834 70.4858 346.259 70.6048 346.644 70.7774C347.031 70.9394 347.358 71.1793 347.626 71.497C347.893 71.8147 348.078 72.2283 348.178 72.738C348.29 73.2491 348.292 73.8849 348.185 74.6455C348.109 75.1842 347.992 75.6362 347.833 76.0017C347.674 76.3671 347.487 76.6586 347.274 76.8764C347.071 77.0955 346.848 77.2635 346.605 77.3802C346.363 77.4969 346.118 77.5865 345.873 77.6489L347.398 82.6619L345.005 82.3257L343.73 77.7194C343.603 77.7015 343.455 77.6808 343.286 77.657C343.129 77.6242 342.966 77.5959 342.797 77.5721C342.628 77.5484 342.459 77.5246 342.29 77.5009C342.121 77.4771 341.969 77.4503 341.833 77.4205L341.219 81.7935L338.874 81.4639ZM342.094 75.5667L344.185 75.8606C344.396 75.8903 344.59 75.8906 344.767 75.8615C344.943 75.8325 345.104 75.7635 345.248 75.6545C345.394 75.535 345.514 75.3688 345.609 75.1559C345.714 74.9445 345.791 74.6645 345.84 74.3159C345.886 73.9885 345.887 73.7139 345.843 73.4923C345.811 73.2615 345.739 73.0792 345.629 72.9452C345.52 72.8006 345.384 72.6953 345.221 72.6293C345.059 72.5527 344.873 72.4996 344.662 72.4699L342.57 72.176L342.094 75.5667ZM348.063 82.7553L353.386 71.5472L356.349 71.9636L358.377 84.205L355.937 83.8621L355.538 81.3015L351.545 80.7404L350.471 83.0938L348.063 82.7553ZM352.396 78.711L355.279 79.1163L354.561 73.7642L352.396 78.711ZM359.344 84.3409L360.616 75.2938C360.688 74.7762 360.828 74.3543 361.036 74.0279C361.243 73.7016 361.493 73.4567 361.785 73.2931C362.078 73.1295 362.388 73.0278 362.717 72.9878C363.046 72.9478 363.363 72.9494 363.67 72.9924C364.05 73.0459 364.519 73.1172 365.078 73.2064C365.648 73.2866 366.248 73.3871 366.877 73.5078C367.517 73.6301 368.128 73.7644 368.711 73.911L368.435 75.8757L364.014 75.2544C363.687 75.2084 363.426 75.2633 363.232 75.4191C363.049 75.5658 362.938 75.7818 362.898 76.067L362.618 78.0634L367.242 78.8426L366.982 80.6964L362.322 80.1707L361.689 84.6705L359.344 84.3409ZM368.427 85.6174L369.698 76.5703C369.771 76.0527 369.911 75.6307 370.119 75.3044C370.326 74.9781 370.576 74.7332 370.868 74.5696C371.16 74.406 371.471 74.3042 371.8 74.2643C372.128 74.2243 372.446 74.2258 372.752 74.2689C373.133 74.3223 373.602 74.3937 374.16 74.4829C374.731 74.5631 375.33 74.6635 375.96 74.7843C376.6 74.9065 377.211 75.0409 377.793 75.1874L377.517 77.1521L373.097 76.5309C372.769 76.4848 372.509 76.5397 372.314 76.6956C372.132 76.8423 372.021 77.0583 371.981 77.3435L371.7 79.3399L376.325 80.119L376.064 81.9728L371.404 81.4471L370.772 85.9469L368.427 85.6174ZM377.664 86.9156L379.312 75.1908L381.657 75.5204L380.009 87.2452L377.664 86.9156ZM385.975 88.1805C385.288 88.084 384.692 87.9195 384.186 87.6868C383.691 87.4556 383.288 87.1028 382.978 86.6283C382.678 86.1553 382.488 85.5146 382.408 84.7063C382.34 83.8888 382.394 82.8516 382.57 81.5946C382.741 80.3799 382.976 79.4003 383.274 78.656C383.585 77.9025 383.954 77.3405 384.384 76.9699C384.814 76.5888 385.305 76.3509 385.857 76.2561C386.409 76.1613 387.018 76.1607 387.683 76.2542C388.211 76.3284 388.698 76.4292 389.143 76.5564C389.601 76.6745 390.008 76.8018 390.366 76.9383C390.725 77.0642 391.025 77.1925 391.265 77.3231L391.009 79.1452C390.825 79.0763 390.572 78.9976 390.251 78.9094C389.94 78.8226 389.58 78.7397 389.171 78.6607C388.763 78.5711 388.332 78.4944 387.878 78.4305C387.435 78.3682 387.047 78.3676 386.715 78.4287C386.396 78.4807 386.121 78.6306 385.893 78.8785C385.676 79.1174 385.484 79.4836 385.318 79.9773C385.162 80.4724 385.027 81.1267 384.913 81.94C384.803 82.7217 384.75 83.3712 384.752 83.8886C384.766 84.4075 384.842 84.8222 384.981 85.1326C385.122 85.4325 385.338 85.662 385.628 85.8213C385.93 85.9714 386.319 86.0799 386.794 86.1467C387.597 86.2595 388.249 86.335 388.75 86.3731C389.261 86.4127 389.673 86.4328 389.985 86.4336L389.731 88.2399C389.433 88.2949 389.093 88.3334 388.713 88.3553C388.335 88.3668 387.921 88.3571 387.473 88.3265C387.024 88.3064 386.524 88.2577 385.975 88.1805Z" fill="white"/>
</g>
<g clip-path="url(#clip1_1_1844)">
<rect width="476" height="43" transform="matrix(0.990268 -0.139173 0.139191 0.990266 -51 66.2463)" fill="#7F3A6A"/>
<path d="M-27.8383 90.2566L-32.2908 78.926L-29.8666 78.5853L-26.8186 86.591L-25.7788 78.0108L-23.624 77.7079L-20.2749 85.6713L-19.552 77.1357L-17.1278 76.795L-18.2842 88.9138L-20.6767 89.2501L-24.2159 81.3134L-25.4458 89.9203L-27.8383 90.2566ZM-11.7323 88.0738C-11.9858 88.1094 -12.2799 88.1239 -12.6148 88.1171C-12.9482 88.1208 -13.2799 88.0597 -13.61 87.9338C-13.9295 87.8063 -14.2134 87.5877 -14.4616 87.2779C-14.7007 86.9561 -14.8626 86.4941 -14.9472 85.892L-15.867 79.3483C-15.9398 78.8308 -15.9214 78.3866 -15.812 78.0157C-15.7025 77.6449 -15.5299 77.3405 -15.294 77.1027C-15.0581 76.8649 -14.7877 76.6815 -14.4827 76.5525C-14.1777 76.4234 -13.872 76.3374 -13.5657 76.2943C-12.7735 76.183 -12.0749 76.0956 -11.4698 76.0321C-10.8542 75.9671 -10.3012 75.9163 -9.81086 75.8797C-9.322 75.8326 -8.8739 75.8019 -8.46658 75.7877L-8.19042 77.7524L-12.5634 78.367C-12.8909 78.413 -13.1333 78.5279 -13.2906 78.7116C-13.4479 78.8952 -13.5035 79.1508 -13.4575 79.4783L-13.2192 81.1736L-8.55898 80.6479L-8.29842 82.5017L-12.923 83.2809L-12.6958 84.897C-12.6572 85.1716 -12.5845 85.3822 -12.4778 85.5288C-12.3619 85.6633 -12.2256 85.7519 -12.0688 85.7945C-11.9029 85.825 -11.7355 85.8284 -11.5665 85.8047L-7.14593 85.1834L-6.86977 87.1481C-7.32711 87.2662 -7.83875 87.3812 -8.4047 87.4931C-8.96007 87.6034 -9.52676 87.71 -10.1047 87.8128C-10.6722 87.9141 -11.2147 88.0011 -11.7323 88.0738ZM-1.05654 86.4926L-2.70456 74.7679L1.90612 74.1199C3.06804 73.9566 3.95093 74.1072 4.55479 74.5717C5.16773 75.0241 5.54324 75.7415 5.68132 76.7239C5.74665 77.1886 5.73589 77.6102 5.64906 77.9886C5.5713 78.355 5.42728 78.6715 5.21699 78.938C5.00523 79.194 4.73628 79.388 4.41014 79.52C4.67256 79.5477 4.92961 79.6139 5.18129 79.7186C5.44354 79.8218 5.68606 79.9762 5.90886 80.1818C6.14221 80.386 6.33546 80.6497 6.4886 80.9728C6.65082 81.284 6.76237 81.6561 6.82324 82.0891C6.93459 82.8814 6.88636 83.5344 6.67853 84.0483C6.48127 84.5608 6.13342 84.9597 5.63497 85.2452C5.1456 85.5187 4.52065 85.7088 3.76013 85.8157L-1.05654 86.4926ZM0.992219 84.0558L3.40055 83.7173C3.67518 83.6787 3.90543 83.5925 4.09127 83.4587C4.27712 83.3249 4.40727 83.1396 4.48172 82.9029C4.56673 82.6648 4.58325 82.3609 4.53129 81.9912C4.48823 81.6848 4.39376 81.4342 4.24788 81.2393C4.10199 81.0444 3.92054 80.9029 3.70351 80.8149C3.48648 80.7269 3.24593 80.7015 2.98186 80.7386L0.573531 81.0771L0.992219 84.0558ZM0.319645 79.2708L2.60122 78.9502C2.93923 78.9027 3.18623 78.7441 3.34222 78.4744C3.50728 78.1927 3.5616 77.8512 3.50518 77.4498C3.44299 76.9307 3.28688 76.5864 3.03685 76.4169C2.78682 76.2474 2.50337 76.1849 2.18648 76.2294L-0.0634094 76.5456L0.319645 79.2708ZM13.3088 84.5545C12.6644 84.6451 12.0549 84.6769 11.4803 84.6499C10.9041 84.6124 10.3855 84.486 9.92434 84.2708C9.4723 84.0435 9.0952 83.6979 8.79304 83.2341C8.49995 82.7583 8.29847 82.1296 8.18861 81.3479L7.07062 73.3941L9.41557 73.0645L10.5313 81.0025C10.5922 81.4356 10.725 81.767 10.9296 81.9967C11.1448 82.225 11.4243 82.3742 11.7681 82.4444C12.1224 82.5131 12.5373 82.514 13.0126 82.4472C13.4773 82.3819 13.8653 82.2682 14.1764 82.1059C14.4981 81.9422 14.7256 81.7218 14.859 81.4445C15.0029 81.1658 15.0445 80.8099 14.9836 80.3768L13.8678 72.4388L16.2286 72.107L17.3466 80.0608C17.4565 80.8425 17.4308 81.5031 17.2697 82.0428C17.1071 82.5719 16.8399 83.008 16.468 83.3511C16.0947 83.6837 15.6363 83.9474 15.0928 84.1422C14.5583 84.3251 13.9637 84.4625 13.3088 84.5545ZM22.5277 83.1781L22.0288 79.629L17.3464 71.9499L19.7864 71.607L22.9125 77.065L24.3971 70.959L26.742 70.6295L24.3738 79.2994L24.8726 82.8485L22.5277 83.1781ZM36.2289 81.2525L34.8771 71.6351L31.6607 72.0871L31.3645 69.9798L40.1581 68.744L40.4543 70.8512L37.222 71.3055L38.5739 80.923L36.2289 81.2525ZM43.0723 80.2907L41.4243 68.566L46.2726 67.8846C46.7374 67.8193 47.1786 67.8165 47.5963 67.8763C48.0126 67.9255 48.3932 68.0659 48.7381 68.2975C49.083 68.5291 49.3741 68.8759 49.6114 69.3381C49.8593 69.7987 50.0367 70.4093 50.1436 71.1699C50.2193 71.7086 50.2311 72.1755 50.1789 72.5706C50.1267 72.9657 50.0279 73.2973 49.8825 73.5655C49.7476 73.8322 49.5797 74.0551 49.3786 74.2341C49.1776 74.4132 48.9676 74.5666 48.7486 74.6943L51.5965 79.0927L49.204 79.429L46.7083 75.3526C46.5816 75.3705 46.4337 75.3912 46.2647 75.415C46.1048 75.4267 45.9403 75.4444 45.7713 75.4682C45.6023 75.4919 45.4333 75.5157 45.2643 75.5394C45.0953 75.5632 44.9414 75.5794 44.8026 75.5882L45.4172 79.9612L43.0723 80.2907ZM44.542 73.7344L46.6334 73.4405C46.8447 73.4108 47.0311 73.3576 47.1927 73.2811C47.3543 73.2045 47.4895 73.0939 47.5985 72.9494C47.7059 72.7942 47.7758 72.6013 47.808 72.3706C47.8507 72.1384 47.8476 71.848 47.7986 71.4994C47.7526 71.172 47.6778 70.9078 47.5741 70.7069C47.4796 70.494 47.3607 70.3384 47.2177 70.24C47.0731 70.1311 46.9133 70.0673 46.7384 70.0489C46.562 70.0198 46.3681 70.0201 46.1569 70.0498L44.0654 70.3437L44.542 73.7344ZM52.2612 78.9993L54.2891 66.758L57.252 66.3416L62.5759 77.5497L60.1358 77.8926L59.046 75.5414L55.0532 76.1026L54.6696 78.6609L52.2612 78.9993ZM55.3116 73.9173L58.1952 73.5121L56.0296 68.5653L55.3116 73.9173ZM63.543 77.4138L62.2713 68.3667C62.1986 67.8491 62.2169 67.4049 62.3264 67.0341C62.4358 66.6632 62.6085 66.3589 62.8443 66.1211C63.0802 65.8833 63.3506 65.6999 63.6556 65.5708C63.9607 65.4418 64.2663 65.3558 64.5726 65.3127C64.9529 65.2593 65.4237 65.1985 65.985 65.1304C66.5554 65.0502 67.1597 64.9814 67.7979 64.9241C68.4467 64.8652 69.0713 64.8259 69.6718 64.8061L69.9479 66.7708L65.5274 67.3921C65.1999 67.4381 64.9643 67.5628 64.8205 67.7661C64.6859 67.9574 64.6386 68.1956 64.6786 68.4808L64.9593 70.4772L69.6194 69.9515L69.88 71.8053L65.2554 72.5845L65.8879 77.0842L63.543 77.4138ZM72.6256 76.1373L71.3539 67.0902C71.2812 66.5727 71.2995 66.1284 71.409 65.7576C71.5184 65.3868 71.6911 65.0824 71.927 64.8446C72.1628 64.6068 72.4332 64.4234 72.7383 64.2944C73.0433 64.1653 73.3489 64.0793 73.6553 64.0362C74.0355 63.9828 74.5063 63.922 75.0676 63.8539C75.638 63.7737 76.2423 63.705 76.8806 63.6476C77.5293 63.5887 78.1539 63.5494 78.7544 63.5296L79.0305 65.4943L74.61 66.1156C74.2825 66.1616 74.0469 66.2863 73.9032 66.4896C73.7685 66.6809 73.7212 66.9191 73.7613 67.2043L74.0419 69.2007L78.7021 68.675L78.9626 70.5288L74.3381 71.308L74.9706 75.8077L72.6256 76.1373ZM81.8629 74.8391L80.2149 63.1143L82.5599 62.7848L84.2079 74.5095L81.8629 74.8391ZM90.2004 73.7643C89.5138 73.8608 88.8953 73.8669 88.3449 73.7827C87.805 73.697 87.3206 73.4689 86.8915 73.0983C86.4729 72.7263 86.1137 72.1628 85.8137 71.4078C85.5228 70.6409 85.289 69.6289 85.1123 68.3719C84.9415 67.1572 84.897 66.1509 84.9788 65.3531C85.0696 64.5433 85.2702 63.9011 85.5805 63.4266C85.8893 62.9416 86.2959 62.5775 86.8003 62.3342C87.3047 62.091 87.8896 61.9226 88.5551 61.8291C89.0832 61.7549 89.5789 61.7175 90.042 61.7171C90.5142 61.7046 90.941 61.7146 91.3226 61.7471C91.7027 61.7691 92.0262 61.8098 92.2931 61.8693L92.5492 63.6914C92.3531 63.6758 92.0884 63.6699 91.755 63.6737C91.4322 63.676 91.0633 63.6955 90.6484 63.7323C90.232 63.7585 89.7967 63.8035 89.3425 63.8674C88.8988 63.9297 88.526 64.036 88.2239 64.1861C87.931 64.3242 87.7087 64.544 87.5572 64.8453C87.4148 65.1346 87.3316 65.5395 87.3078 66.0599C87.2946 66.5787 87.3451 67.2449 87.4595 68.0582C87.5693 68.8399 87.6969 69.479 87.8421 69.9756C87.9978 70.4708 88.1855 70.8483 88.4052 71.1083C88.6234 71.3577 88.8938 71.5189 89.2164 71.5921C89.5482 71.6532 89.9517 71.6503 90.427 71.5835C91.2298 71.4707 91.8772 71.3635 92.3692 71.2621C92.8718 71.1591 93.2732 71.065 93.5736 70.9797L93.8275 72.786C93.5557 72.9211 93.2401 73.0516 92.8808 73.1775C92.52 73.2929 92.12 73.3975 91.6808 73.4916C91.2431 73.5962 90.7496 73.6871 90.2004 73.7643Z" fill="white"/>
<mask id="path-5-outside-2_1_1844" maskUnits="userSpaceOnUse" x="123.807" y="38.4829" width="128.703" height="31.6779" fill="black">
<rect fill="white" x="123.807" y="38.4829" width="128.703" height="31.6779"/>
<path d="M129.405 68.5897L124.952 57.2591L127.376 56.9184L130.424 64.9241L131.464 56.3439L133.619 56.0411L136.968 64.0045L137.691 55.4688L140.115 55.1281L138.959 67.247L136.566 67.5832L133.027 59.6465L131.797 68.2535L129.405 68.5897Z"/>
<path d="M145.511 66.4069C145.257 66.4426 144.963 66.457 144.628 66.4502C144.295 66.454 143.963 66.3929 143.633 66.2669C143.313 66.1395 143.03 65.9208 142.781 65.611C142.542 65.2892 142.38 64.8272 142.296 64.2251L141.376 57.6815C141.303 57.1639 141.322 56.7197 141.431 56.3488C141.54 55.978 141.713 55.6737 141.949 55.4359C142.185 55.1981 142.455 55.0146 142.76 54.8856C143.065 54.7566 143.371 54.6705 143.677 54.6275C144.469 54.5161 145.168 54.4287 145.773 54.3652C146.389 54.3002 146.942 54.2495 147.432 54.2129C147.921 54.1657 148.369 54.135 148.776 54.1209L149.052 56.0856L144.679 56.7001C144.352 56.7462 144.11 56.861 143.952 57.0447C143.795 57.2284 143.739 57.4839 143.785 57.8114L144.024 59.5067L148.684 58.981L148.944 60.8348L144.32 61.614L144.547 63.2301C144.586 63.5048 144.658 63.7154 144.765 63.8619C144.881 63.9964 145.017 64.085 145.174 64.1276C145.34 64.1581 145.507 64.1615 145.676 64.1378L150.097 63.5165L150.373 65.4812C149.916 65.5993 149.404 65.7143 148.838 65.8262C148.283 65.9365 147.716 66.0431 147.138 66.1459C146.571 66.2472 146.028 66.3342 145.511 66.4069Z"/>
<path d="M156.186 64.8258L154.538 53.101L159.149 52.453C160.311 52.2897 161.194 52.4403 161.798 52.9048C162.411 53.3572 162.786 54.0746 162.924 55.057C162.99 55.5217 162.979 55.9433 162.892 56.3218C162.814 56.6882 162.67 57.0046 162.46 57.2711C162.248 57.5271 161.979 57.7211 161.653 57.8531C161.915 57.8808 162.173 57.9471 162.424 58.0517C162.686 58.1549 162.929 58.3093 163.152 58.515C163.385 58.7191 163.578 58.9828 163.732 59.306C163.894 59.6171 164.005 59.9892 164.066 60.4223C164.178 61.2145 164.129 61.8675 163.921 62.3815C163.724 62.8939 163.376 63.2929 162.878 63.5784C162.389 63.8518 161.764 64.042 161.003 64.1488L156.186 64.8258ZM158.235 62.3889L160.643 62.0505C160.918 62.0119 161.148 61.9256 161.334 61.7918C161.52 61.658 161.65 61.4727 161.725 61.2361C161.81 60.9979 161.826 60.694 161.774 60.3243C161.731 60.018 161.637 59.7673 161.491 59.5724C161.345 59.3775 161.163 59.236 160.946 59.148C160.729 59.0601 160.489 59.0346 160.225 59.0717L157.816 59.4102L158.235 62.3889ZM157.563 57.604L159.844 57.2833C160.182 57.2358 160.429 57.0772 160.585 56.8076C160.75 56.5258 160.805 56.1843 160.748 55.7829C160.686 55.2638 160.53 54.9195 160.28 54.75C160.03 54.5805 159.746 54.518 159.429 54.5626L157.18 54.8788L157.563 57.604Z"/>
<path d="M170.552 62.8876C169.907 62.9782 169.298 63.01 168.723 62.9831C168.147 62.9455 167.628 62.8192 167.167 62.6039C166.715 62.3766 166.338 62.0311 166.036 61.5673C165.743 61.0914 165.541 60.4627 165.432 59.681L164.314 51.7272L166.658 51.3977L167.774 59.3356C167.835 59.7687 167.968 60.1001 168.173 60.3299C168.388 60.5581 168.667 60.7074 169.011 60.7775C169.365 60.8462 169.78 60.8472 170.255 60.7804C170.72 60.715 171.108 60.6013 171.419 60.4391C171.741 60.2754 171.969 60.0549 172.102 59.7776C172.246 59.4989 172.287 59.143 172.226 58.7099L171.111 50.7719L173.472 50.4401L174.59 58.394C174.699 59.1756 174.674 59.8363 174.513 60.3759C174.35 60.9051 174.083 61.3412 173.711 61.6843C173.338 62.0168 172.879 62.2805 172.336 62.4754C171.801 62.6582 171.207 62.7956 170.552 62.8876Z"/>
<path d="M179.771 61.5112L179.272 57.9621L174.589 50.2831L177.029 49.9401L180.155 55.3982L181.64 49.2921L183.985 48.9626L181.617 57.6326L182.116 61.1817L179.771 61.5112Z"/>
<path d="M193.472 59.5856L192.12 49.9682L188.904 50.4202L188.607 48.3129L197.401 47.0771L197.697 49.1844L194.465 49.6386L195.817 59.2561L193.472 59.5856Z"/>
<path d="M200.315 58.6239L198.667 46.8991L203.516 46.2177C203.98 46.1524 204.422 46.1496 204.839 46.2094C205.255 46.2586 205.636 46.399 205.981 46.6306C206.326 46.8622 206.617 47.2091 206.854 47.6712C207.102 48.1319 207.28 48.7425 207.386 49.503C207.462 50.0417 207.474 50.5086 207.422 50.9037C207.37 51.2988 207.271 51.6304 207.125 51.8986C206.991 52.1653 206.823 52.3882 206.622 52.5673C206.421 52.7463 206.21 52.8997 205.991 53.0274L208.839 57.4259L206.447 57.7621L203.951 53.6858C203.824 53.7036 203.677 53.7244 203.508 53.7481C203.348 53.7598 203.183 53.7776 203.014 53.8013C202.845 53.8251 202.676 53.8488 202.507 53.8726C202.338 53.8963 202.184 53.9126 202.045 53.9213L202.66 58.2943L200.315 58.6239ZM201.785 52.0675L203.876 51.7736C204.088 51.7439 204.274 51.6908 204.436 51.6142C204.597 51.5376 204.732 51.4271 204.841 51.2825C204.949 51.1274 205.019 50.9344 205.051 50.7037C205.094 50.4715 205.091 50.1811 205.042 49.8325C204.996 49.5051 204.921 49.2409 204.817 49.0401C204.722 48.8272 204.604 48.6715 204.461 48.5731C204.316 48.4642 204.156 48.4005 203.981 48.382C203.805 48.3529 203.611 48.3532 203.4 48.3829L201.308 48.6769L201.785 52.0675Z"/>
<path d="M209.504 57.3325L211.532 45.0911L214.495 44.6747L219.819 55.8828L217.379 56.2257L216.289 53.8745L212.296 54.4357L211.912 56.994L209.504 57.3325ZM212.554 52.2505L215.438 51.8452L213.273 46.8985L212.554 52.2505Z"/>
<path d="M220.786 55.7469L219.514 46.6998C219.441 46.1823 219.46 45.738 219.569 45.3672C219.679 44.9964 219.851 44.692 220.087 44.4542C220.323 44.2164 220.594 44.033 220.899 43.904C221.204 43.7749 221.509 43.6889 221.816 43.6458C222.196 43.5924 222.667 43.5316 223.228 43.4635C223.798 43.3833 224.403 43.3146 225.041 43.2572C225.69 43.1983 226.314 43.159 226.915 43.1392L227.191 45.1039L222.77 45.7252C222.443 45.7712 222.207 45.8959 222.063 46.0992C221.929 46.2905 221.881 46.5287 221.922 46.8139L222.202 48.8103L226.862 48.2846L227.123 50.1384L222.498 50.9176L223.131 55.4173L220.786 55.7469Z"/>
<path d="M229.869 54.4704L228.597 45.4234C228.524 44.9058 228.542 44.4616 228.652 44.0907C228.761 43.7199 228.934 43.4156 229.17 43.1778C229.406 42.94 229.676 42.7565 229.981 42.6275C230.286 42.4985 230.592 42.4124 230.898 42.3694C231.278 42.3159 231.749 42.2551 232.311 42.187C232.881 42.1069 233.485 42.0381 234.123 41.9807C234.772 41.9218 235.397 41.8825 235.997 41.8628L236.273 43.8275L231.853 44.4487C231.525 44.4947 231.29 44.6194 231.146 44.8227C231.011 45.014 230.964 45.2522 231.004 45.5374L231.285 47.5338L235.945 47.0081L236.206 48.8619L231.581 49.6411L232.213 54.1409L229.869 54.4704Z"/>
<path d="M239.106 53.1722L237.458 41.4475L239.803 41.1179L241.451 52.8426L239.106 53.1722Z"/>
<path d="M247.443 52.0974C246.757 52.1939 246.138 52.2 245.588 52.1158C245.048 52.0301 244.563 51.802 244.134 51.4314C243.716 51.0594 243.357 50.4959 243.057 49.741C242.766 48.974 242.532 47.962 242.355 46.705C242.184 45.4903 242.14 44.4841 242.222 43.6862C242.313 42.8764 242.513 42.2342 242.823 41.7598C243.132 41.2747 243.539 40.9106 244.043 40.6674C244.548 40.4241 245.133 40.2557 245.798 40.1622C246.326 40.088 246.822 40.0507 247.285 40.0502C247.757 40.0377 248.184 40.0477 248.566 40.0803C248.946 40.1022 249.269 40.143 249.536 40.2024L249.792 42.0245C249.596 42.0089 249.331 42.0031 248.998 42.0068C248.675 42.0091 248.306 42.0286 247.891 42.0654C247.475 42.0916 247.04 42.1366 246.585 42.2005C246.142 42.2628 245.769 42.3691 245.467 42.5192C245.174 42.6574 244.952 42.8771 244.8 43.1785C244.658 43.4678 244.575 43.8726 244.551 44.393C244.538 44.9119 244.588 45.578 244.702 46.3913C244.812 47.173 244.94 47.8121 245.085 48.3087C245.241 48.8039 245.428 49.1814 245.648 49.4414C245.866 49.6908 246.137 49.8521 246.459 49.9252C246.791 49.9863 247.195 49.9834 247.67 49.9166C248.473 49.8038 249.12 49.6967 249.612 49.5952C250.115 49.4923 250.516 49.3981 250.817 49.3128L251.07 51.1191C250.799 51.2542 250.483 51.3847 250.124 51.5106C249.763 51.626 249.363 51.7307 248.924 51.8247C248.486 51.9293 247.993 52.0202 247.443 52.0974Z"/>
</mask>
<path d="M129.405 68.5897L124.952 57.2591L127.376 56.9184L130.424 64.9241L131.464 56.3439L133.619 56.0411L136.968 64.0045L137.691 55.4688L140.115 55.1281L138.959 67.247L136.566 67.5832L133.027 59.6465L131.797 68.2535L129.405 68.5897Z" stroke="white" stroke-width="1.5" mask="url(#path-5-outside-2_1_1844)"/>
<path d="M145.511 66.4069C145.257 66.4426 144.963 66.457 144.628 66.4502C144.295 66.454 143.963 66.3929 143.633 66.2669C143.313 66.1395 143.03 65.9208 142.781 65.611C142.542 65.2892 142.38 64.8272 142.296 64.2251L141.376 57.6815C141.303 57.1639 141.322 56.7197 141.431 56.3488C141.54 55.978 141.713 55.6737 141.949 55.4359C142.185 55.1981 142.455 55.0146 142.76 54.8856C143.065 54.7566 143.371 54.6705 143.677 54.6275C144.469 54.5161 145.168 54.4287 145.773 54.3652C146.389 54.3002 146.942 54.2495 147.432 54.2129C147.921 54.1657 148.369 54.135 148.776 54.1209L149.052 56.0856L144.679 56.7001C144.352 56.7462 144.11 56.861 143.952 57.0447C143.795 57.2284 143.739 57.4839 143.785 57.8114L144.024 59.5067L148.684 58.981L148.944 60.8348L144.32 61.614L144.547 63.2301C144.586 63.5048 144.658 63.7154 144.765 63.8619C144.881 63.9964 145.017 64.085 145.174 64.1276C145.34 64.1581 145.507 64.1615 145.676 64.1378L150.097 63.5165L150.373 65.4812C149.916 65.5993 149.404 65.7143 148.838 65.8262C148.283 65.9365 147.716 66.0431 147.138 66.1459C146.571 66.2472 146.028 66.3342 145.511 66.4069Z" stroke="white" stroke-width="1.5" mask="url(#path-5-outside-2_1_1844)"/>
<path d="M156.186 64.8258L154.538 53.101L159.149 52.453C160.311 52.2897 161.194 52.4403 161.798 52.9048C162.411 53.3572 162.786 54.0746 162.924 55.057C162.99 55.5217 162.979 55.9433 162.892 56.3218C162.814 56.6882 162.67 57.0046 162.46 57.2711C162.248 57.5271 161.979 57.7211 161.653 57.8531C161.915 57.8808 162.173 57.9471 162.424 58.0517C162.686 58.1549 162.929 58.3093 163.152 58.515C163.385 58.7191 163.578 58.9828 163.732 59.306C163.894 59.6171 164.005 59.9892 164.066 60.4223C164.178 61.2145 164.129 61.8675 163.921 62.3815C163.724 62.8939 163.376 63.2929 162.878 63.5784C162.389 63.8518 161.764 64.042 161.003 64.1488L156.186 64.8258ZM158.235 62.3889L160.643 62.0505C160.918 62.0119 161.148 61.9256 161.334 61.7918C161.52 61.658 161.65 61.4727 161.725 61.2361C161.81 60.9979 161.826 60.694 161.774 60.3243C161.731 60.018 161.637 59.7673 161.491 59.5724C161.345 59.3775 161.163 59.236 160.946 59.148C160.729 59.0601 160.489 59.0346 160.225 59.0717L157.816 59.4102L158.235 62.3889ZM157.563 57.604L159.844 57.2833C160.182 57.2358 160.429 57.0772 160.585 56.8076C160.75 56.5258 160.805 56.1843 160.748 55.7829C160.686 55.2638 160.53 54.9195 160.28 54.75C160.03 54.5805 159.746 54.518 159.429 54.5626L157.18 54.8788L157.563 57.604Z" stroke="white" stroke-width="1.5" mask="url(#path-5-outside-2_1_1844)"/>
<path d="M170.552 62.8876C169.907 62.9782 169.298 63.01 168.723 62.9831C168.147 62.9455 167.628 62.8192 167.167 62.6039C166.715 62.3766 166.338 62.0311 166.036 61.5673C165.743 61.0914 165.541 60.4627 165.432 59.681L164.314 51.7272L166.658 51.3977L167.774 59.3356C167.835 59.7687 167.968 60.1001 168.173 60.3299C168.388 60.5581 168.667 60.7074 169.011 60.7775C169.365 60.8462 169.78 60.8472 170.255 60.7804C170.72 60.715 171.108 60.6013 171.419 60.4391C171.741 60.2754 171.969 60.0549 172.102 59.7776C172.246 59.4989 172.287 59.143 172.226 58.7099L171.111 50.7719L173.472 50.4401L174.59 58.394C174.699 59.1756 174.674 59.8363 174.513 60.3759C174.35 60.9051 174.083 61.3412 173.711 61.6843C173.338 62.0168 172.879 62.2805 172.336 62.4754C171.801 62.6582 171.207 62.7956 170.552 62.8876Z" stroke="white" stroke-width="1.5" mask="url(#path-5-outside-2_1_1844)"/>
<path d="M179.771 61.5112L179.272 57.9621L174.589 50.2831L177.029 49.9401L180.155 55.3982L181.64 49.2921L183.985 48.9626L181.617 57.6326L182.116 61.1817L179.771 61.5112Z" stroke="white" stroke-width="1.5" mask="url(#path-5-outside-2_1_1844)"/>
<path d="M193.472 59.5856L192.12 49.9682L188.904 50.4202L188.607 48.3129L197.401 47.0771L197.697 49.1844L194.465 49.6386L195.817 59.2561L193.472 59.5856Z" stroke="white" stroke-width="1.5" mask="url(#path-5-outside-2_1_1844)"/>
<path d="M200.315 58.6239L198.667 46.8991L203.516 46.2177C203.98 46.1524 204.422 46.1496 204.839 46.2094C205.255 46.2586 205.636 46.399 205.981 46.6306C206.326 46.8622 206.617 47.2091 206.854 47.6712C207.102 48.1319 207.28 48.7425 207.386 49.503C207.462 50.0417 207.474 50.5086 207.422 50.9037C207.37 51.2988 207.271 51.6304 207.125 51.8986C206.991 52.1653 206.823 52.3882 206.622 52.5673C206.421 52.7463 206.21 52.8997 205.991 53.0274L208.839 57.4259L206.447 57.7621L203.951 53.6858C203.824 53.7036 203.677 53.7244 203.508 53.7481C203.348 53.7598 203.183 53.7776 203.014 53.8013C202.845 53.8251 202.676 53.8488 202.507 53.8726C202.338 53.8963 202.184 53.9126 202.045 53.9213L202.66 58.2943L200.315 58.6239ZM201.785 52.0675L203.876 51.7736C204.088 51.7439 204.274 51.6908 204.436 51.6142C204.597 51.5376 204.732 51.4271 204.841 51.2825C204.949 51.1274 205.019 50.9344 205.051 50.7037C205.094 50.4715 205.091 50.1811 205.042 49.8325C204.996 49.5051 204.921 49.2409 204.817 49.0401C204.722 48.8272 204.604 48.6715 204.461 48.5731C204.316 48.4642 204.156 48.4005 203.981 48.382C203.805 48.3529 203.611 48.3532 203.4 48.3829L201.308 48.6769L201.785 52.0675Z" stroke="white" stroke-width="1.5" mask="url(#path-5-outside-2_1_1844)"/>
<path d="M209.504 57.3325L211.532 45.0911L214.495 44.6747L219.819 55.8828L217.379 56.2257L216.289 53.8745L212.296 54.4357L211.912 56.994L209.504 57.3325ZM212.554 52.2505L215.438 51.8452L213.273 46.8985L212.554 52.2505Z" stroke="white" stroke-width="1.5" mask="url(#path-5-outside-2_1_1844)"/>
<path d="M220.786 55.7469L219.514 46.6998C219.441 46.1823 219.46 45.738 219.569 45.3672C219.679 44.9964 219.851 44.692 220.087 44.4542C220.323 44.2164 220.594 44.033 220.899 43.904C221.204 43.7749 221.509 43.6889 221.816 43.6458C222.196 43.5924 222.667 43.5316 223.228 43.4635C223.798 43.3833 224.403 43.3146 225.041 43.2572C225.69 43.1983 226.314 43.159 226.915 43.1392L227.191 45.1039L222.77 45.7252C222.443 45.7712 222.207 45.8959 222.063 46.0992C221.929 46.2905 221.881 46.5287 221.922 46.8139L222.202 48.8103L226.862 48.2846L227.123 50.1384L222.498 50.9176L223.131 55.4173L220.786 55.7469Z" stroke="white" stroke-width="1.5" mask="url(#path-5-outside-2_1_1844)"/>
<path d="M229.869 54.4704L228.597 45.4234C228.524 44.9058 228.542 44.4616 228.652 44.0907C228.761 43.7199 228.934 43.4156 229.17 43.1778C229.406 42.94 229.676 42.7565 229.981 42.6275C230.286 42.4985 230.592 42.4124 230.898 42.3694C231.278 42.3159 231.749 42.2551 232.311 42.187C232.881 42.1069 233.485 42.0381 234.123 41.9807C234.772 41.9218 235.397 41.8825 235.997 41.8628L236.273 43.8275L231.853 44.4487C231.525 44.4947 231.29 44.6194 231.146 44.8227C231.011 45.014 230.964 45.2522 231.004 45.5374L231.285 47.5338L235.945 47.0081L236.206 48.8619L231.581 49.6411L232.213 54.1409L229.869 54.4704Z" stroke="white" stroke-width="1.5" mask="url(#path-5-outside-2_1_1844)"/>
<path d="M239.106 53.1722L237.458 41.4475L239.803 41.1179L241.451 52.8426L239.106 53.1722Z" stroke="white" stroke-width="1.5" mask="url(#path-5-outside-2_1_1844)"/>
<path d="M247.443 52.0974C246.757 52.1939 246.138 52.2 245.588 52.1158C245.048 52.0301 244.563 51.802 244.134 51.4314C243.716 51.0594 243.357 50.4959 243.057 49.741C242.766 48.974 242.532 47.962 242.355 46.705C242.184 45.4903 242.14 44.4841 242.222 43.6862C242.313 42.8764 242.513 42.2342 242.823 41.7598C243.132 41.2747 243.539 40.9106 244.043 40.6674C244.548 40.4241 245.133 40.2557 245.798 40.1622C246.326 40.088 246.822 40.0507 247.285 40.0502C247.757 40.0377 248.184 40.0477 248.566 40.0803C248.946 40.1022 249.269 40.143 249.536 40.2024L249.792 42.0245C249.596 42.0089 249.331 42.0031 248.998 42.0068C248.675 42.0091 248.306 42.0286 247.891 42.0654C247.475 42.0916 247.04 42.1366 246.585 42.2005C246.142 42.2628 245.769 42.3691 245.467 42.5192C245.174 42.6574 244.952 42.8771 244.8 43.1785C244.658 43.4678 244.575 43.8726 244.551 44.393C244.538 44.9119 244.588 45.578 244.702 46.3913C244.812 47.173 244.94 47.8121 245.085 48.3087C245.241 48.8039 245.428 49.1814 245.648 49.4414C245.866 49.6908 246.137 49.8521 246.459 49.9252C246.791 49.9863 247.195 49.9834 247.67 49.9166C248.473 49.8038 249.12 49.6967 249.612 49.5952C250.115 49.4923 250.516 49.3981 250.817 49.3128L251.07 51.1191C250.799 51.2542 250.483 51.3847 250.124 51.5106C249.763 51.626 249.363 51.7307 248.924 51.8247C248.486 51.9293 247.993 52.0202 247.443 52.0974Z" stroke="white" stroke-width="1.5" mask="url(#path-5-outside-2_1_1844)"/>
<path d="M285.825 46.1742L281.372 34.8436L283.796 34.5029L286.844 42.5086L287.884 33.9284L290.039 33.6255L293.388 41.5889L294.111 33.0533L296.535 32.7126L295.379 44.8314L292.986 45.1677L289.447 37.231L288.217 45.8379L285.825 46.1742ZM301.931 43.9914C301.677 44.027 301.383 44.0415 301.048 44.0347C300.715 44.0384 300.383 43.9773 300.053 43.8514C299.734 43.7239 299.45 43.5053 299.201 43.1955C298.962 42.8737 298.8 42.4117 298.716 41.8096L297.796 35.2659C297.723 34.7484 297.742 34.3042 297.851 33.9333C297.961 33.5625 298.133 33.2581 298.369 33.0203C298.605 32.7825 298.875 32.5991 299.18 32.4701C299.485 32.341 299.791 32.255 300.097 32.2119C300.89 32.1006 301.588 32.0132 302.193 31.9497C302.809 31.8847 303.362 31.8339 303.852 31.7973C304.341 31.7502 304.789 31.7195 305.197 31.7053L305.473 33.67L301.1 34.2846C300.772 34.3306 300.53 34.4455 300.373 34.6292C300.215 34.8129 300.16 35.0684 300.206 35.3959L300.444 37.0912L305.104 36.5655L305.365 38.4193L300.74 39.1985L300.967 40.8146C301.006 41.0892 301.079 41.2998 301.185 41.4464C301.301 41.5809 301.438 41.6695 301.594 41.7121C301.76 41.7426 301.928 41.746 302.097 41.7223L306.517 41.101L306.793 43.0657C306.336 43.1838 305.824 43.2988 305.258 43.4107C304.703 43.521 304.136 43.6276 303.558 43.7304C302.991 43.8317 302.448 43.9187 301.931 43.9914ZM312.607 42.4103L310.959 30.6855L315.569 30.0375C316.731 29.8742 317.614 30.0248 318.218 30.4893C318.831 30.9417 319.206 31.6591 319.344 32.6415C319.41 33.1062 319.399 33.5278 319.312 33.9063C319.234 34.2726 319.09 34.5891 318.88 34.8556C318.668 35.1116 318.399 35.3056 318.073 35.4376C318.336 35.4653 318.593 35.5315 318.844 35.6362C319.107 35.7394 319.349 35.8938 319.572 36.0994C319.805 36.3036 319.999 36.5673 320.152 36.8905C320.314 37.2016 320.425 37.5737 320.486 38.0067C320.598 38.799 320.549 39.452 320.342 39.966C320.144 40.4784 319.797 40.8774 319.298 41.1628C318.809 41.4363 318.184 41.6264 317.423 41.7333L312.607 42.4103ZM314.655 39.9734L317.064 39.6349C317.338 39.5963 317.569 39.5101 317.754 39.3763C317.94 39.2425 318.07 39.0572 318.145 38.8205C318.23 38.5824 318.246 38.2785 318.194 37.9088C318.151 37.6024 318.057 37.3518 317.911 37.1569C317.765 36.962 317.584 36.8205 317.367 36.7325C317.15 36.6445 316.909 36.6191 316.645 36.6562L314.237 36.9947L314.655 39.9734ZM313.983 35.1884L316.264 34.8678C316.602 34.8203 316.849 34.6617 317.005 34.392C317.17 34.1103 317.225 33.7688 317.168 33.3674C317.106 32.8483 316.95 32.504 316.7 32.3345C316.45 32.165 316.166 32.1025 315.85 32.147L313.6 32.4632L313.983 35.1884ZM326.972 40.4721C326.328 40.5627 325.718 40.5945 325.143 40.5675C324.567 40.53 324.049 40.4036 323.587 40.1884C323.135 39.9611 322.758 39.6155 322.456 39.1517C322.163 38.6759 321.962 38.0472 321.852 37.2655L320.734 29.3117L323.079 28.9821L324.194 36.9201C324.255 37.3532 324.388 37.6846 324.593 37.9143C324.808 38.1426 325.087 38.2918 325.431 38.362C325.786 38.4307 326.2 38.4316 326.676 38.3648C327.14 38.2995 327.528 38.1858 327.839 38.0235C328.161 37.8598 328.389 37.6394 328.522 37.3621C328.666 37.0834 328.708 36.7275 328.647 36.2944L327.531 28.3564L329.892 28.0246L331.01 35.9784C331.12 36.7601 331.094 37.4207 330.933 37.9604C330.77 38.4895 330.503 38.9256 330.131 39.2687C329.758 39.6013 329.299 39.865 328.756 40.0598C328.221 40.2427 327.627 40.3801 326.972 40.4721ZM336.191 39.0957L335.692 35.5466L331.009 27.8675L333.449 27.5246L336.576 32.9827L338.06 26.8766L340.405 26.5471L338.037 35.217L338.536 38.7661L336.191 39.0957ZM349.892 37.1701L348.54 27.5527L345.324 28.0047L345.028 25.8974L353.821 24.6616L354.117 26.7688L350.885 27.2231L352.237 36.8406L349.892 37.1701ZM356.735 36.2084L355.087 24.4836L359.936 23.8022C360.4 23.7369 360.842 23.7341 361.259 23.7939C361.676 23.8431 362.056 23.9835 362.401 24.2151C362.746 24.4467 363.037 24.7935 363.275 25.2557C363.522 25.7163 363.7 26.3269 363.807 27.0875C363.882 27.6262 363.894 28.0931 363.842 28.4882C363.79 28.8833 363.691 29.2149 363.546 29.4831C363.411 29.7498 363.243 29.9727 363.042 30.1517C362.841 30.3308 362.631 30.4842 362.412 30.6119L365.26 35.0103L362.867 35.3466L360.371 31.2703C360.245 31.2881 360.097 31.3088 359.928 31.3326C359.768 31.3443 359.603 31.362 359.434 31.3858C359.265 31.4095 359.096 31.4333 358.927 31.457C358.758 31.4808 358.604 31.497 358.466 31.5058L359.08 35.8788L356.735 36.2084ZM358.205 29.652L360.297 29.3581C360.508 29.3284 360.694 29.2752 360.856 29.1987C361.017 29.1221 361.153 29.0115 361.262 28.867C361.369 28.7118 361.439 28.5189 361.471 28.2882C361.514 28.056 361.511 27.7656 361.462 27.417C361.416 27.0896 361.341 26.8254 361.237 26.6245C361.143 26.4116 361.024 26.256 360.881 26.1576C360.736 26.0487 360.576 25.985 360.401 25.9665C360.225 25.9374 360.031 25.9377 359.82 25.9674L357.728 26.2613L358.205 29.652ZM365.924 34.9169L367.952 22.6756L370.915 22.2592L376.239 33.4673L373.799 33.8102L372.709 31.459L368.716 32.0202L368.333 34.5785L365.924 34.9169ZM368.975 29.8349L371.858 29.4297L369.693 24.4829L368.975 29.8349ZM377.206 33.3314L375.934 24.2843C375.862 23.7667 375.88 23.3225 375.989 22.9517C376.099 22.5808 376.272 22.2765 376.507 22.0387C376.743 21.8009 377.014 21.6175 377.319 21.4884C377.624 21.3594 377.929 21.2734 378.236 21.2303C378.616 21.1769 379.087 21.1161 379.648 21.048C380.218 20.9678 380.823 20.899 381.461 20.8417C382.11 20.7828 382.734 20.7435 383.335 20.7237L383.611 22.6884L379.19 23.3097C378.863 23.3557 378.627 23.4804 378.484 23.6837C378.349 23.875 378.302 24.1132 378.342 24.3984L378.622 26.3948L383.283 25.8691L383.543 27.7229L378.919 28.5021L379.551 33.0018L377.206 33.3314ZM386.289 32.0549L385.017 23.0078C384.944 22.4903 384.963 22.046 385.072 21.6752C385.182 21.3044 385.354 21 385.59 20.7622C385.826 20.5244 386.096 20.341 386.401 20.212C386.706 20.0829 387.012 19.9969 387.318 19.9538C387.699 19.9004 388.169 19.8396 388.731 19.7715C389.301 19.6913 389.905 19.6226 390.544 19.5652C391.192 19.5063 391.817 19.467 392.417 19.4472L392.694 21.4119L388.273 22.0332C387.946 22.0792 387.71 22.2039 387.566 22.4072C387.432 22.5985 387.384 22.8367 387.424 23.1219L387.705 25.1183L392.365 24.5926L392.626 26.4464L388.001 27.2256L388.634 31.7253L386.289 32.0549ZM395.526 30.7567L393.878 19.0319L396.223 18.7024L397.871 30.4271L395.526 30.7567ZM403.863 29.6819C403.177 29.7784 402.558 29.7845 402.008 29.7003C401.468 29.6146 400.984 29.3865 400.555 29.0159C400.136 28.6439 399.777 28.0804 399.477 27.3255C399.186 26.5585 398.952 25.5465 398.775 24.2895C398.605 23.0748 398.56 22.0685 398.642 21.2707C398.733 20.4609 398.933 19.8187 399.244 19.3442C399.552 18.8592 399.959 18.4951 400.463 18.2518C400.968 18.0086 401.553 17.8402 402.218 17.7467C402.746 17.6725 403.242 17.6351 403.705 17.6347C404.177 17.6222 404.604 17.6322 404.986 17.6647C405.366 17.6867 405.689 17.7274 405.956 17.7869L406.212 19.609C406.016 19.5934 405.751 19.5875 405.418 19.5913C405.095 19.5936 404.726 19.6131 404.311 19.6499C403.895 19.6761 403.46 19.7211 403.006 19.785C402.562 19.8473 402.189 19.9536 401.887 20.1037C401.594 20.2418 401.372 20.4616 401.22 20.7629C401.078 21.0522 400.995 21.4571 400.971 21.9775C400.958 22.4964 401.008 23.1625 401.123 23.9758C401.232 24.7575 401.36 25.3966 401.505 25.8932C401.661 26.3884 401.849 26.7659 402.068 27.0259C402.286 27.2753 402.557 27.4365 402.88 27.5097C403.211 27.5708 403.615 27.5679 404.09 27.5011C404.893 27.3883 405.54 27.2811 406.032 27.1797C406.535 27.0767 406.936 26.9826 407.237 26.8973L407.491 28.7036C407.219 28.8387 406.903 28.9692 406.544 29.0951C406.183 29.2105 405.783 29.3151 405.344 29.4092C404.906 29.5138 404.413 29.6047 403.863 29.6819Z" fill="white"/>
</g>
<defs>
<clipPath id="clip0_1_1844">
<rect width="475.999" height="43" fill="white" transform="matrix(0.990268 0.139173 -0.139155 0.990271 -45.0161 0.246338)"/>
</clipPath>
<clipPath id="clip1_1_1844">
<rect width="476" height="43" fill="white" transform="matrix(0.990268 -0.139173 0.139191 0.990266 -51 66.2463)"/>
</clipPath>
</defs>
</svg>
